<svg width="150" height="50" viewBox="0 0 150 50" fill="none" xmlns="http://www.w3.org/2000/svg">
    <rect width="150" height="50" rx="8" fill="#fa824c"/>
    <path d="M64.1211 29.0801H68.1641V30H62.9902V21.4688H64.1211V29.0801ZM68.9902 26.7715C68.9902 26.1504 69.1113 25.5918 69.3535 25.0957C69.5996 24.5996 69.9395 24.2168 70.373 23.9473C70.8105 23.6777 71.3086 23.543 71.8672 23.543C72.7305 23.543 73.4277 23.8418 73.959 24.4395C74.4941 25.0371 74.7617 25.832 74.7617 26.8242V26.9004C74.7617 27.5176 74.6426 28.0723 74.4043 28.5645C74.1699 29.0527 73.832 29.4336 73.3906 29.707C72.9531 29.9805 72.4492 30.1172 71.8789 30.1172C71.0195 30.1172 70.3223 29.8184 69.7871 29.2207C69.2559 28.623 68.9902 27.832 68.9902 26.8477V26.7715ZM70.0801 26.9004C70.0801 27.6035 70.2422 28.168 70.5664 28.5938C70.8945 29.0195 71.332 29.2324 71.8789 29.2324C72.4297 29.2324 72.8672 29.0176 73.1914 28.5879C73.5156 28.1543 73.6777 27.5488 73.6777 26.7715C73.6777 26.0762 73.5117 25.5137 73.1797 25.084C72.8516 24.6504 72.4141 24.4336 71.8672 24.4336C71.332 24.4336 70.9004 24.6465 70.5723 25.0723C70.2441 25.498 70.0801 26.1074 70.0801 26.9004ZM75.8633 26.7773C75.8633 25.7891 76.0918 25.0039 76.5488 24.4219C77.0059 23.8359 77.6113 23.543 78.3652 23.543C79.1387 23.543 79.7422 23.8164 80.1758 24.3633L80.2285 23.6602H81.2188V29.8477C81.2188 30.668 80.9746 31.3145 80.4863 31.7871C80.002 32.2598 79.3496 32.4961 78.5293 32.4961C78.0723 32.4961 77.625 32.3984 77.1875 32.2031C76.75 32.0078 76.416 31.7402 76.1855 31.4004L76.748 30.75C77.2129 31.3242 77.7812 31.6113 78.4531 31.6113C78.9805 31.6113 79.3906 31.4629 79.6836 31.166C79.9805 30.8691 80.1289 30.4512 80.1289 29.9121V29.3672C79.6953 29.8672 79.1035 30.1172 78.3535 30.1172C77.6113 30.1172 77.0098 29.8184 76.5488 29.2207C76.0918 28.623 75.8633 27.8086 75.8633 26.7773ZM76.9531 26.9004C76.9531 27.6152 77.0996 28.1777 77.3926 28.5879C77.6855 28.9941 78.0957 29.1973 78.623 29.1973C79.3066 29.1973 79.8086 28.8867 80.1289 28.2656V25.3711C79.7969 24.7656 79.2988 24.4629 78.6348 24.4629C78.1074 24.4629 77.6953 24.668 77.3984 25.0781C77.1016 25.4883 76.9531 26.0957 76.9531 26.9004ZM82.5723 26.7715C82.5723 26.1504 82.6934 25.5918 82.9355 25.0957C83.1816 24.5996 83.5215 24.2168 83.9551 23.9473C84.3926 23.6777 84.8906 23.543 85.4492 23.543C86.3125 23.543 87.0098 23.8418 87.541 24.4395C88.0762 25.0371 88.3438 25.832 88.3438 26.8242V26.9004C88.3438 27.5176 88.2246 28.0723 87.9863 28.5645C87.752 29.0527 87.4141 29.4336 86.9727 29.707C86.5352 29.9805 86.0312 30.1172 85.4609 30.1172C84.6016 30.1172 83.9043 29.8184 83.3691 29.2207C82.8379 28.623 82.5723 27.832 82.5723 26.8477V26.7715ZM83.6621 26.9004C83.6621 27.6035 83.8242 28.168 84.1484 28.5938C84.4766 29.0195 84.9141 29.2324 85.4609 29.2324C86.0117 29.2324 86.4492 29.0176 86.7734 28.5879C87.0977 28.1543 87.2598 27.5488 87.2598 26.7715C87.2598 26.0762 87.0938 25.5137 86.7617 25.084C86.4336 24.6504 85.9961 24.4336 85.4492 24.4336C84.9141 24.4336 84.4824 24.6465 84.1543 25.0723C83.8262 25.498 83.6621 26.1074 83.6621 26.9004Z" fill="#fff"/>
</svg>
