<svg width="360" height="54" viewBox="0 0 360 54" fill="none" xmlns="http://www.w3.org/2000/svg">
<path d="M50.8263 39.0772C52.651 35.4535 53.6841 31.3634 53.6841 27.0293C53.6841 12.2053 41.666 0.187225 26.8415 0.187225C12.0175 0.187225 0 12.2053 0 27.0293C0 41.8545 12.0169 53.8714 26.8415 53.8714C26.8415 53.8714 26.8415 53.8714 26.8421 53.8714C30.393 53.8714 33.7804 53.1758 36.8828 51.9214L36.8953 51.9196L53.6841 53.8708L50.8198 39.1076L50.8263 39.0772Z" fill="#0EC99E"/>
<path d="M101.475 47.3246H95.0879L95.0459 29.6759L86.3896 44.2151H83.3221L74.7079 30.0541V47.3246H68.3207V17.9101H73.9515L84.9609 36.1891L95.8023 17.9101H101.391L101.475 47.3246ZM117.107 24.3813C120.608 24.3813 123.298 25.2147 125.175 26.8815C127.052 28.5483 127.99 31.0626 127.99 34.4242V47.3246H121.855V44.5092C120.623 46.6102 118.325 47.6608 114.964 47.6608C113.227 47.6608 111.721 47.3666 110.446 46.7783C109.172 46.19 108.198 45.3776 107.526 44.3411C106.854 43.3046 106.518 42.128 106.518 40.8114C106.518 38.7103 107.309 37.0575 108.892 35.8529C110.475 34.6483 112.919 34.0461 116.224 34.0461H121.435C121.435 32.6173 121.001 31.5178 120.132 30.7474C119.264 29.977 117.961 29.5919 116.224 29.5919C115.02 29.5919 113.836 29.781 112.674 30.1591C111.511 30.5373 110.524 31.0486 109.711 31.6929L107.358 27.1126C108.591 26.2442 110.068 25.5719 111.791 25.0956C113.514 24.6194 115.286 24.3813 117.107 24.3813ZM116.603 43.2486C117.723 43.2486 118.718 42.9895 119.586 42.4712C120.454 41.9529 121.071 41.1896 121.435 40.1811V37.8699H116.939C114.249 37.8699 112.905 38.7524 112.905 40.5172C112.905 41.3577 113.234 42.023 113.892 42.5132C114.551 43.0035 115.454 43.2486 116.603 43.2486ZM140.176 27.7009C140.961 26.6084 142.018 25.782 143.349 25.2217C144.679 24.6614 146.213 24.3813 147.95 24.3813V30.4323C147.222 30.3762 146.731 30.3482 146.479 30.3482C144.602 30.3482 143.132 30.8735 142.067 31.924C141.003 32.9745 140.47 34.5503 140.47 36.6513V47.3246H133.915V24.7175H140.176V27.7009ZM151.858 47.3246V24.7175H158.413V47.3246H151.858ZM155.136 21.5659C153.931 21.5659 152.95 21.2157 152.194 20.5154C151.438 19.815 151.059 18.9466 151.059 17.9101C151.059 16.8736 151.438 16.0052 152.194 15.3048C152.95 14.6045 153.931 14.2543 155.136 14.2543C156.34 14.2543 157.321 14.5905 158.077 15.2628C158.833 15.9351 159.212 16.7755 159.212 17.784C159.212 18.8766 158.833 19.78 158.077 20.4944C157.321 21.2087 156.34 21.5659 155.136 21.5659ZM178.247 24.3813C181.048 24.3813 183.31 25.2217 185.033 26.9025C186.756 28.5834 187.618 31.0766 187.618 34.3822V47.3246H181.062V35.3907C181.062 33.5978 180.67 32.2602 179.886 31.3777C179.101 30.4953 177.967 30.0541 176.482 30.0541C174.829 30.0541 173.513 30.5653 172.532 31.5878C171.552 32.6103 171.061 34.1301 171.061 36.1471V47.3246H164.506V24.7175H170.767V27.3648C171.636 26.4123 172.714 25.6769 174.003 25.1587C175.291 24.6404 176.706 24.3813 178.247 24.3813ZM202.661 24.3813C206.163 24.3813 208.852 25.2147 210.729 26.8815C212.606 28.5483 213.544 31.0626 213.544 34.4242V47.3246H207.409V44.5092C206.177 46.6102 203.88 47.6608 200.518 47.6608C198.781 47.6608 197.275 47.3666 196.001 46.7783C194.726 46.19 193.753 45.3776 193.08 44.3411C192.408 43.3046 192.072 42.128 192.072 40.8114C192.072 38.7103 192.863 37.0575 194.446 35.8529C196.029 34.6483 198.473 34.0461 201.778 34.0461H206.989C206.989 32.6173 206.555 31.5178 205.686 30.7474C204.818 29.977 203.515 29.5919 201.778 29.5919C200.574 29.5919 199.39 29.781 198.228 30.1591C197.065 30.5373 196.078 31.0486 195.265 31.6929L192.912 27.1126C194.145 26.2442 195.622 25.5719 197.345 25.0956C199.068 24.6194 200.84 24.3813 202.661 24.3813ZM202.157 43.2486C203.277 43.2486 204.272 42.9895 205.14 42.4712C206.009 41.9529 206.625 41.1896 206.989 40.1811V37.8699H202.493C199.804 37.8699 198.459 38.7524 198.459 40.5172C198.459 41.3577 198.788 42.023 199.446 42.5132C200.105 43.0035 201.008 43.2486 202.157 43.2486ZM264.978 47.3246H258.59L258.548 29.6759L249.892 44.2151H246.825L238.21 30.0541V47.3246H231.823V17.9101H237.454L248.463 36.1891L259.305 17.9101H264.894L264.978 47.3246ZM293.636 36.1051C293.636 36.1891 293.594 36.7774 293.51 37.8699H276.407C276.715 39.2706 277.444 40.3772 278.592 41.1896C279.741 42.002 281.17 42.4082 282.878 42.4082C284.055 42.4082 285.099 42.2331 286.009 41.8829C286.919 41.5327 287.767 40.9795 288.551 40.2231L292.039 44.005C289.91 46.4422 286.8 47.6608 282.71 47.6608C280.161 47.6608 277.906 47.1635 275.945 46.169C273.984 45.1745 272.471 43.7949 271.407 42.03C270.342 40.2651 269.81 38.2621 269.81 36.021C269.81 33.8079 270.335 31.8119 271.386 30.0331C272.436 28.2542 273.879 26.8675 275.714 25.873C277.549 24.8785 279.601 24.3813 281.87 24.3813C284.083 24.3813 286.086 24.8575 287.879 25.81C289.672 26.7625 291.079 28.1281 292.102 29.907C293.124 31.6859 293.636 33.7519 293.636 36.1051ZM281.912 29.3397C280.427 29.3397 279.181 29.7599 278.172 30.6004C277.164 31.4408 276.547 32.5893 276.323 34.0461H287.459C287.235 32.6173 286.618 31.4758 285.61 30.6214C284.601 29.7669 283.369 29.3397 281.912 29.3397ZM314.478 16.1452H321.033V47.3246H314.772V44.7193C313.147 46.6803 310.794 47.6608 307.713 47.6608C305.584 47.6608 303.658 47.1845 301.935 46.2321C300.212 45.2796 298.86 43.9209 297.88 42.156C296.899 40.3912 296.409 38.3462 296.409 36.021C296.409 33.6959 296.899 31.6509 297.88 29.886C298.86 28.1211 300.212 26.7625 301.935 25.81C303.658 24.8575 305.584 24.3813 307.713 24.3813C310.598 24.3813 312.853 25.2917 314.478 27.1126V16.1452ZM308.847 42.2821C310.5 42.2821 311.873 41.7148 312.965 40.5803C314.058 39.4457 314.604 37.926 314.604 36.021C314.604 34.1161 314.058 32.5963 312.965 31.4618C311.873 30.3272 310.5 29.7599 308.847 29.7599C307.166 29.7599 305.78 30.3272 304.687 31.4618C303.595 32.5963 303.048 34.1161 303.048 36.021C303.048 37.926 303.595 39.4457 304.687 40.5803C305.78 41.7148 307.166 42.2821 308.847 42.2821ZM327.084 47.3246V24.7175H333.639V47.3246H327.084ZM330.362 21.5659C329.157 21.5659 328.177 21.2157 327.42 20.5154C326.664 19.815 326.286 18.9466 326.286 17.9101C326.286 16.8736 326.664 16.0052 327.42 15.3048C328.177 14.6045 329.157 14.2543 330.362 14.2543C331.566 14.2543 332.547 14.5905 333.303 15.2628C334.06 15.9351 334.438 16.7755 334.438 17.784C334.438 18.8766 334.06 19.78 333.303 20.4944C332.547 21.2087 331.566 21.5659 330.362 21.5659ZM348.851 24.3813C352.353 24.3813 355.042 25.2147 356.919 26.8815C358.796 28.5483 359.734 31.0626 359.734 34.4242V47.3246H353.599V44.5092C352.367 46.6102 350.07 47.6608 346.708 47.6608C344.971 47.6608 343.465 47.3666 342.191 46.7783C340.916 46.19 339.943 45.3776 339.27 44.3411C338.598 43.3046 338.262 42.128 338.262 40.8114C338.262 38.7103 339.053 37.0575 340.636 35.8529C342.219 34.6483 344.663 34.0461 347.968 34.0461H353.179C353.179 32.6173 352.745 31.5178 351.876 30.7474C351.008 29.977 349.705 29.5919 347.968 29.5919C346.764 29.5919 345.58 29.781 344.418 30.1591C343.255 30.5373 342.268 31.0486 341.455 31.6929L339.102 27.1126C340.335 26.2442 341.812 25.5719 343.535 25.0956C345.258 24.6194 347.03 24.3813 348.851 24.3813ZM348.347 43.2486C349.467 43.2486 350.462 42.9895 351.33 42.4712C352.199 41.9529 352.815 41.1896 353.179 40.1811V37.8699H348.683C345.994 37.8699 344.649 38.7524 344.649 40.5172C344.649 41.3577 344.978 42.023 345.636 42.5132C346.295 43.0035 347.198 43.2486 348.347 43.2486Z" fill="white"/>
<path d="M32.4989 33.1603C31.3246 34.1456 31.1709 35.9026 32.1563 37.0769C33.1416 38.2512 34.8986 38.4049 36.0729 37.4195C37.2472 36.4342 37.4011 34.6769 36.4158 33.5027C35.4302 32.3286 33.6732 32.1749 32.4989 33.1603Z" fill="white"/>
<path d="M25.2516 35.0196C25.178 35.8591 25.7991 36.5993 26.6389 36.6728C27.4784 36.7465 28.2186 36.1254 28.2921 35.2855C28.6079 31.6748 31.8028 28.9943 35.4131 29.3101C35.8328 29.3469 36.228 29.2099 36.527 28.9589C36.8261 28.708 37.0296 28.3426 37.0663 27.9229C37.1398 27.0831 36.5189 26.3432 35.6791 26.2697C30.3919 25.8072 25.7144 29.7322 25.2516 35.0196Z" fill="white"/>
<path d="M24.4643 23.4693C24.464 23.4695 24.4643 23.4693 24.4643 23.4693C21.1659 26.237 19.1427 30.1241 18.7675 34.4134C18.694 35.2532 19.3151 35.9934 20.1547 36.0666C20.5744 36.1033 20.9695 35.9664 21.2686 35.7154C21.5677 35.4644 21.7712 35.099 21.8079 34.6794C22.1121 31.2017 23.7522 28.051 26.4262 25.8073C29.1001 23.5636 32.4879 22.4956 35.9653 22.7996C36.8047 22.873 37.5451 22.2517 37.6185 21.4124C37.692 20.5726 37.0711 19.8326 36.2313 19.7592C31.9413 19.3841 27.7624 20.7017 24.4643 23.4693Z" fill="white"/>
<path d="M36.6992 13.2886C30.6982 12.7639 24.8522 14.6072 20.2378 18.4792C20.2375 18.4794 20.2378 18.4792 20.2375 18.4794C15.6233 22.3513 12.7928 27.7887 12.2681 33.7892C12.1944 34.6288 12.8155 35.3689 13.6554 35.4424C14.4949 35.5156 15.2351 34.8945 15.3086 34.0552C15.7624 28.8666 18.2097 24.1653 22.1996 20.8172C26.1896 17.4692 31.2444 15.8754 36.4332 16.3291C36.8529 16.3658 37.2478 16.229 37.5472 15.9779C37.8462 15.7269 38.0497 15.3615 38.0864 14.9418C38.1599 14.1025 37.5388 13.3623 36.6992 13.2886Z" fill="white"/>
</svg>
