<svg width="200" height="50" viewBox="0 0 200 50" fill="none" xmlns="http://www.w3.org/2000/svg">
<path d="M0 0H200V50H0V0Z" fill="#D28254"/>
<path d="M47.5866 35.7786H44.5838L44.5641 24.156L40.4946 33.7308H39.0525L35.0027 24.405V35.7786H32V16.4075H34.6472L39.8229 28.4453L44.9197 16.4075H47.5471L47.5866 35.7786ZM54.9354 20.6692C56.5816 20.6692 57.8459 21.218 58.7283 22.3157C59.6107 23.4134 60.0519 25.0692 60.0519 27.283V35.7786H57.1677V33.9245C56.5882 35.3082 55.5083 36 53.9279 36C53.1114 36 52.4035 35.8063 51.8043 35.4189C51.205 35.0314 50.7474 34.4964 50.4313 33.8138C50.1152 33.1312 49.9572 32.3564 49.9572 31.4893C49.9572 30.1057 50.3292 29.0172 51.0733 28.2239C51.8174 27.4306 52.9665 27.034 54.5205 27.034H56.9702C56.9702 26.0931 56.766 25.369 56.3577 24.8616C55.9495 24.3543 55.3371 24.1006 54.5205 24.1006C53.9542 24.1006 53.3978 24.2252 52.8513 24.4742C52.3047 24.7233 51.8405 25.06 51.4585 25.4843L50.3523 22.4679C50.9317 21.896 51.6265 21.4532 52.4364 21.1396C53.2464 20.826 54.0794 20.6692 54.9354 20.6692ZM54.6983 33.0943C55.2251 33.0943 55.6927 32.9237 56.1009 32.5824C56.5092 32.2411 56.7989 31.7384 56.9702 31.0742V29.5522H54.8564C53.5921 29.5522 52.9599 30.1333 52.9599 31.2956C52.9599 31.8491 53.1147 32.2872 53.4241 32.6101C53.7336 32.9329 54.1584 33.0943 54.6983 33.0943ZM65.7808 22.8553C66.1496 22.1358 66.6467 21.5916 67.2723 21.2226C67.8979 20.8537 68.6189 20.6692 69.4355 20.6692V24.6541C69.0931 24.6172 68.8626 24.5987 68.7441 24.5987C67.8617 24.5987 67.1702 24.9447 66.6698 25.6365C66.1693 26.3283 65.9191 27.366 65.9191 28.7497V35.7786H62.8373V20.8906H65.7808V22.8553ZM71.2727 35.7786V20.8906H74.3544V35.7786H71.2727ZM72.8136 18.8151C72.2472 18.8151 71.7863 18.5845 71.4307 18.1233C71.0751 17.6621 70.8973 17.0901 70.8973 16.4075C70.8973 15.7249 71.0751 15.153 71.4307 14.6918C71.7863 14.2306 72.2472 14 72.8136 14C73.3799 14 73.8408 14.2214 74.1964 14.6641C74.552 15.1069 74.7298 15.6604 74.7298 16.3245C74.7298 17.044 74.552 17.639 74.1964 18.1094C73.8408 18.5799 73.3799 18.8151 72.8136 18.8151ZM83.6787 20.6692C84.9957 20.6692 86.0592 21.2226 86.8691 22.3296C87.6791 23.4365 88.0841 25.0784 88.0841 27.2553V35.7786H85.0023V27.9195C85.0023 26.7388 84.8179 25.8579 84.4492 25.2767C84.0804 24.6956 83.547 24.405 82.849 24.405C82.072 24.405 81.453 24.7417 80.9921 25.4151C80.5311 26.0885 80.3006 27.0893 80.3006 28.4176V35.7786H77.2189V20.8906H80.1624V22.634C80.5706 22.0067 81.0777 21.5224 81.6835 21.1811C82.2893 20.8398 82.9544 20.6692 83.6787 20.6692ZM95.1563 20.6692C96.8025 20.6692 98.0669 21.218 98.9492 22.3157C99.8316 23.4134 100.273 25.0692 100.273 27.283V35.7786H97.3886V33.9245C96.8091 35.3082 95.7292 36 94.1488 36C93.3323 36 92.6244 35.8063 92.0252 35.4189C91.4259 35.0314 90.9683 34.4964 90.6522 33.8138C90.3361 33.1312 90.1781 32.3564 90.1781 31.4893C90.1781 30.1057 90.5501 29.0172 91.2942 28.2239C92.0383 27.4306 93.1874 27.034 94.7415 27.034H97.1911C97.1911 26.0931 96.9869 25.369 96.5787 24.8616C96.1704 24.3543 95.558 24.1006 94.7415 24.1006C94.1751 24.1006 93.6187 24.2252 93.0722 24.4742C92.5256 24.7233 92.0614 25.06 91.6794 25.4843L90.5732 22.4679C91.1527 21.896 91.8474 21.4532 92.6573 21.1396C93.4673 20.826 94.3003 20.6692 95.1563 20.6692ZM94.9193 33.0943C95.446 33.0943 95.9136 32.9237 96.3218 32.5824C96.7301 32.2411 97.0199 31.7384 97.1911 31.0742V29.5522H95.0773C93.813 29.5522 93.1808 30.1333 93.1808 31.2956C93.1808 31.8491 93.3356 32.2872 93.6451 32.6101C93.9546 32.9329 94.3793 33.0943 94.9193 33.0943ZM124.453 35.7786H121.45L121.43 24.156L117.361 33.7308H115.919L111.869 24.405V35.7786H108.866V16.4075H111.513L116.689 28.4453L121.786 16.4075H124.413L124.453 35.7786ZM137.926 28.3899C137.926 28.4453 137.906 28.8327 137.866 29.5522H129.826C129.971 30.4746 130.313 31.2034 130.853 31.7384C131.393 32.2734 132.065 32.5409 132.868 32.5409C133.421 32.5409 133.912 32.4256 134.34 32.195C134.768 31.9644 135.166 31.6 135.535 31.1019L137.175 33.5925C136.174 35.1975 134.712 36 132.789 36C131.591 36 130.531 35.6725 129.609 35.0176C128.687 34.3627 127.976 33.4541 127.475 32.2918C126.975 31.1296 126.725 29.8105 126.725 28.3346C126.725 26.8771 126.972 25.5627 127.465 24.3912C127.959 23.2197 128.638 22.3065 129.5 21.6516C130.363 20.9966 131.327 20.6692 132.394 20.6692C133.435 20.6692 134.376 20.9828 135.219 21.6101C136.062 22.2373 136.724 23.1367 137.205 24.3082C137.685 25.4797 137.926 26.8403 137.926 28.3899ZM132.414 23.9346C131.716 23.9346 131.13 24.2113 130.656 24.7648C130.182 25.3182 129.892 26.0746 129.787 27.034H135.022C134.916 26.0931 134.627 25.3413 134.152 24.7786C133.678 24.2159 133.099 23.9346 132.414 23.9346ZM147.724 15.2453H150.806V35.7786H147.862V34.0629C147.098 35.3543 145.992 36 144.543 36C143.543 36 142.637 35.6864 141.827 35.0591C141.017 34.4319 140.382 33.5371 139.921 32.3748C139.46 31.2126 139.229 29.8658 139.229 28.3346C139.229 26.8034 139.46 25.4566 139.921 24.2943C140.382 23.1321 141.017 22.2373 141.827 21.6101C142.637 20.9828 143.543 20.6692 144.543 20.6692C145.9 20.6692 146.96 21.2688 147.724 22.4679V15.2453ZM145.077 32.4579C145.854 32.4579 146.499 32.0843 147.013 31.3371C147.526 30.5899 147.783 29.5891 147.783 28.3346C147.783 27.0801 147.526 26.0792 147.013 25.3321C146.499 24.5849 145.854 24.2113 145.077 24.2113C144.287 24.2113 143.635 24.5849 143.121 25.3321C142.608 26.0792 142.351 27.0801 142.351 28.3346C142.351 29.5891 142.608 30.5899 143.121 31.3371C143.635 32.0843 144.287 32.4579 145.077 32.4579ZM153.65 35.7786V20.8906H156.732V35.7786H153.65ZM155.191 18.8151C154.625 18.8151 154.164 18.5845 153.809 18.1233C153.453 17.6621 153.275 17.0901 153.275 16.4075C153.275 15.7249 153.453 15.153 153.809 14.6918C154.164 14.2306 154.625 14 155.191 14C155.758 14 156.219 14.2214 156.574 14.6641C156.93 15.1069 157.108 15.6604 157.108 16.3245C157.108 17.044 156.93 17.639 156.574 18.1094C156.219 18.5799 155.758 18.8151 155.191 18.8151ZM163.883 20.6692C165.53 20.6692 166.794 21.218 167.676 22.3157C168.559 23.4134 169 25.0692 169 27.283V35.7786H166.116V33.9245C165.536 35.3082 164.456 36 162.876 36C162.059 36 161.352 35.8063 160.752 35.4189C160.153 35.0314 159.695 34.4964 159.379 33.8138C159.063 33.1312 158.905 32.3564 158.905 31.4893C158.905 30.1057 159.277 29.0172 160.021 28.2239C160.766 27.4306 161.915 27.034 163.469 27.034H165.918C165.918 26.0931 165.714 25.369 165.306 24.8616C164.898 24.3543 164.285 24.1006 163.469 24.1006C162.902 24.1006 162.346 24.2252 161.799 24.4742C161.253 24.7233 160.789 25.06 160.407 25.4843L159.3 22.4679C159.88 21.896 160.575 21.4532 161.384 21.1396C162.194 20.826 163.027 20.6692 163.883 20.6692ZM163.646 33.0943C164.173 33.0943 164.641 32.9237 165.049 32.5824C165.457 32.2411 165.747 31.7384 165.918 31.0742V29.5522H163.804C162.54 29.5522 161.908 30.1333 161.908 31.2956C161.908 31.8491 162.063 32.2872 162.372 32.6101C162.682 32.9329 163.106 33.0943 163.646 33.0943Z" fill="white"/>
</svg>
