<svg width="200" height="50" viewBox="0 0 200 50" fill="none" xmlns="http://www.w3.org/2000/svg">
    <rect width="200" height="50" rx="21" fill="#FA824C"/>
    <path d="M43.7467 26.5575L41.7786 18.9821C41.7499 20.2783 41.7355 21.6181 41.7355 23.0016C41.7355 24.8922 41.7606 26.9292 41.8109 29.1126C41.8598 31.2978 41.8964 32.5385 41.9209 32.8348C41.9453 33.133 41.9784 33.3929 42.02 33.6147C42.0976 34.0219 42.2241 34.3946 42.3994 34.7328H39.4635C39.7293 34.2528 39.8888 33.7383 39.942 33.1893C39.9937 32.6385 40.034 32.1058 40.0627 31.5913C40.1188 30.5424 40.1468 29.1353 40.1468 27.3701C40.1468 25.2304 40.1188 23.277 40.0627 21.5099L39.9463 17.8504C39.9046 16.4997 39.7329 15.5407 39.4311 14.9735C39.319 14.7608 39.1753 14.5563 39 14.36H43.1151C43.3881 15.8779 43.7287 17.4895 44.1369 19.1948L46.0511 26.931L48.9892 14.36H53.0935C52.75 14.7417 52.5251 15.1326 52.4188 15.5325C52.265 16.1452 52.1773 16.8551 52.1558 17.6623L52.0825 20.0183C51.992 22.7798 51.9467 25.2304 51.9467 27.3701C51.9467 30.9551 52.076 33.232 52.3347 34.201C52.385 34.3774 52.4482 34.5546 52.5244 34.7328H49.2091C49.3987 34.2619 49.5058 33.7538 49.5302 33.2084C49.5547 32.663 49.5777 31.9104 49.5992 30.9505C49.6826 27.8 49.7242 25.5058 49.7242 24.0678C49.7242 21.6972 49.707 19.9347 49.6725 18.7803L45.7988 34.7328L43.7467 26.5575ZM62.7453 27.6237L62.713 30.1788C62.713 31.7677 62.8287 32.8503 63.0601 33.4266C63.2009 33.7738 63.3661 34.0401 63.5558 34.2256L64.0495 34.7328H60.9971L60.6716 33.1893C59.8783 34.3964 58.7488 35 57.283 35C56.448 35 55.774 34.6446 55.261 33.9338C54.8126 33.2939 54.5884 32.5394 54.5884 31.6704C54.5884 30.7996 54.7515 30.0406 55.0778 29.3935C55.404 28.7463 55.8337 28.2091 56.3668 27.7818C57.4188 26.9565 58.7416 26.5266 60.3353 26.492V26.3448C60.3353 24.1869 60.0724 22.9216 59.5464 22.5489C59.3567 22.4162 59.1124 22.3498 58.8135 22.3498C58.516 22.3498 58.2199 22.4744 57.9253 22.7234C57.6307 22.9707 57.3642 23.2897 57.1256 23.6806C56.6471 24.4714 56.3065 25.404 56.1038 26.4784C55.4787 26.0075 55.1661 25.1058 55.1661 23.7733C55.1661 23.2333 55.2222 22.6252 55.3343 21.949C55.6016 21.949 55.8545 21.9008 56.0931 21.8044L56.9036 21.4854C57.6969 21.1745 58.4722 21.0191 59.2295 21.0191C59.9868 21.0191 60.5919 21.1609 61.0445 21.4445C61.4972 21.7281 61.85 22.1498 62.103 22.7098C62.5312 23.6587 62.7453 25.2967 62.7453 27.6237ZM56.8605 31.9377C56.8605 32.4867 56.9611 32.9121 57.1623 33.2139C57.362 33.5156 57.6128 33.6665 57.9146 33.6665C58.2164 33.6665 58.5074 33.5675 58.7876 33.3693C59.0678 33.1693 59.3208 32.8957 59.5464 32.5485C60.0724 31.7595 60.3353 30.8324 60.3353 29.767V27.7955C59.3524 27.9118 58.5419 28.3245 57.9038 29.0335C57.2082 29.797 56.8605 30.7651 56.8605 31.9377ZM68.9769 34.7328H65.8706C66.1939 33.3311 66.3556 30.9214 66.3556 27.5037C66.3556 25.0713 66.2011 23.4106 65.8922 22.5216C65.7657 22.158 65.5415 21.7454 65.2196 21.2836H68.9553C68.8288 21.8435 68.7268 22.6116 68.6492 23.5878C69.3088 22.5407 70.2286 21.7999 71.4084 21.3654C71.9128 21.1782 72.2807 20.8846 72.5121 20.4846C72.7435 21.1863 72.8591 21.7899 72.8591 22.2953C72.8591 22.8025 72.8383 23.2715 72.7966 23.7024C72.755 24.1314 72.6917 24.5504 72.6069 24.9595C72.4244 25.8376 72.1823 26.5211 71.8805 27.0101C71.6218 25.2794 71.2187 24.2678 70.6712 23.9751C70.0389 23.6278 69.4209 24.0978 68.8173 25.3849C68.6923 25.6521 68.5874 25.9366 68.5026 26.2384C68.4954 26.442 68.4918 26.6502 68.4918 26.8629C68.4918 27.0756 68.4918 27.2892 68.4918 27.5037C68.4918 30.9214 68.6535 33.3311 68.9769 34.7328ZM77.603 17.7032C77.4578 17.9958 77.2839 18.2422 77.0813 18.4421C76.8772 18.6421 76.6459 18.7421 76.3872 18.7421C76.1271 18.7421 75.895 18.6421 75.6909 18.4421C75.4883 18.2422 75.3166 17.9958 75.1757 17.7032C74.8883 17.0996 74.7446 16.4606 74.7446 15.7861C74.7446 14.9699 75.0392 14.4236 75.6284 14.1473C75.8382 14.0491 76.094 14 76.3958 14C77.2308 14 77.7503 14.3736 77.9543 15.1208C78.0176 15.3335 78.0492 15.5707 78.0492 15.8325C78.0492 16.0943 78.0104 16.3979 77.9328 16.7433C77.8566 17.0905 77.7467 17.4105 77.603 17.7032ZM77.8487 34.7328H74.7446C75.0665 33.3311 75.2275 30.9214 75.2275 27.5037C75.2275 25.0967 75.0593 23.4406 74.7231 22.5353C74.6383 22.3044 74.5434 22.0917 74.4385 21.8972L74.0915 21.2836H77.8293C77.5203 22.7489 77.3659 25.0058 77.3659 28.0545C77.3659 31.1051 77.5268 33.3311 77.8487 34.7328ZM83.6587 34.7328H80.6387C80.962 33.3311 81.1237 30.9214 81.1237 27.5037C81.1237 25.0713 80.9548 23.4106 80.6171 22.5216C80.5338 22.2998 80.4389 22.0917 80.3326 21.8972L79.9855 21.2836H83.6393C83.533 21.7272 83.4626 22.1444 83.4281 22.5353L83.344 23.4951C84.1933 21.8444 85.274 21.0191 86.5861 21.0191C87.4354 21.0191 88.0986 21.4363 88.5757 22.2707C89.0384 23.087 89.2698 24.1923 89.2698 25.5867V27.0101C89.2698 29.4516 89.2871 30.9433 89.3215 31.485C89.3575 32.0249 89.3855 32.4376 89.4056 32.723C89.4272 33.0066 89.4523 33.2593 89.4811 33.4811C89.5299 33.8992 89.6032 34.3165 89.7009 34.7328H86.6162C86.9396 33.3311 87.1013 30.9214 87.1013 27.5037C87.1013 26.1366 87.033 25.1995 86.8965 24.6922C86.7599 24.1869 86.5968 23.8251 86.4071 23.6069C86.2174 23.3906 85.9681 23.2824 85.6591 23.2824C85.0915 23.2824 84.5756 23.566 84.1114 24.1332C83.7119 24.6223 83.4065 25.244 83.1953 25.9984C83.1823 26.2384 83.1759 26.4866 83.1759 26.7429V27.5037C83.1759 30.9214 83.3368 33.3311 83.6587 34.7328ZM100.195 27.6237L100.163 30.1788C100.163 31.7677 100.278 32.8503 100.51 33.4266C100.651 33.7738 100.816 34.0401 101.006 34.2256L101.499 34.7328H98.4469L98.1214 33.1893C97.3282 34.3964 96.1986 35 94.7328 35C93.8978 35 93.2238 34.6446 92.7108 33.9338C92.2624 33.2939 92.0382 32.5394 92.0382 31.6704C92.0382 30.7996 92.2014 30.0406 92.5276 29.3935C92.8538 28.7463 93.2835 28.2091 93.8166 27.7818C94.8686 26.9565 96.1914 26.5266 97.7851 26.492V26.3448C97.7851 24.1869 97.5222 22.9216 96.9962 22.5489C96.8065 22.4162 96.5622 22.3498 96.2633 22.3498C95.9658 22.3498 95.6698 22.4744 95.3752 22.7234C95.0806 22.9707 94.814 23.2897 94.5754 23.6806C94.0969 24.4714 93.7563 25.404 93.5537 26.4784C92.9285 26.0075 92.616 25.1058 92.616 23.7733C92.616 23.2333 92.672 22.6252 92.7841 21.949C93.0514 21.949 93.3043 21.9008 93.5429 21.8044L94.3534 21.4854C95.1467 21.1745 95.922 21.0191 96.6793 21.0191C97.4367 21.0191 98.0417 21.1609 98.4943 21.4445C98.947 21.7281 99.2998 22.1498 99.5528 22.7098C99.981 23.6587 100.195 25.2967 100.195 27.6237ZM94.3103 31.9377C94.3103 32.4867 94.4109 32.9121 94.6121 33.2139C94.8118 33.5156 95.0626 33.6665 95.3644 33.6665C95.6662 33.6665 95.9572 33.5675 96.2374 33.3693C96.5176 33.1693 96.7706 32.8957 96.9962 32.5485C97.5222 31.7595 97.7851 30.8324 97.7851 29.767V27.7955C96.8022 27.9118 95.9917 28.3245 95.3536 29.0335C94.658 29.797 94.3103 30.7651 94.3103 31.9377ZM114.678 26.5575L112.71 18.9821C112.681 20.2783 112.667 21.6181 112.667 23.0016C112.667 24.8922 112.692 26.9292 112.742 29.1126C112.791 31.2978 112.828 32.5385 112.852 32.8348C112.877 33.133 112.91 33.3929 112.952 33.6147C113.029 34.0219 113.156 34.3946 113.331 34.7328H110.395C110.661 34.2528 110.82 33.7383 110.874 33.1893C110.925 32.6385 110.965 32.1058 110.994 31.5913C111.05 30.5424 111.078 29.1353 111.078 27.3701C111.078 25.2304 111.05 23.277 110.994 21.5099L110.878 17.8504C110.836 16.4997 110.664 15.5407 110.363 14.9735C110.251 14.7608 110.107 14.5563 109.932 14.36H114.047C114.32 15.8779 114.66 17.4895 115.068 19.1948L116.983 26.931L119.921 14.36H124.025C123.682 14.7417 123.457 15.1326 123.35 15.5325C123.197 16.1452 123.109 16.8551 123.087 17.6623L123.014 20.0183C122.923 22.7798 122.878 25.2304 122.878 27.3701C122.878 30.9551 123.008 33.232 123.266 34.201C123.317 34.3774 123.38 34.5546 123.456 34.7328H120.141C120.33 34.2619 120.437 33.7538 120.462 33.2084C120.486 32.663 120.509 31.9104 120.531 30.9505C120.614 27.8 120.656 25.5058 120.656 24.0678C120.656 21.6972 120.639 19.9347 120.604 18.7803L116.73 34.7328L114.678 26.5575ZM133.213 30.2061C133.466 30.4188 133.593 30.7896 133.593 31.3187C133.593 31.8459 133.537 32.3094 133.425 32.7094C133.313 33.1093 133.116 33.482 132.834 33.8274C132.203 34.6091 131.242 35 129.95 35C128.448 35 127.305 34.2983 126.52 32.8948C125.825 31.6441 125.477 29.9534 125.477 27.8227C125.477 25.6739 125.947 23.9869 126.889 22.7616C127.78 21.5999 128.986 21.0191 130.508 21.0191C131.569 21.0191 132.397 21.409 132.993 22.1889C133.463 22.8107 133.698 23.5279 133.698 24.3405C133.698 25.1531 133.573 25.8857 133.323 26.5384C133.075 27.191 132.708 27.7519 132.224 28.2209C131.228 29.1971 129.836 29.7125 128.046 29.767C128.193 31.5504 128.635 32.7439 129.372 33.3475C129.638 33.5602 129.992 33.6665 130.435 33.6665C130.877 33.6665 131.347 33.3738 131.845 32.7885C132.343 32.2031 132.799 31.3423 133.213 30.2061ZM127.982 28.0873V28.5018C130.199 28.3145 131.308 26.9565 131.308 24.4277C131.308 23.477 131.084 22.8379 130.635 22.5107C130.48 22.4035 130.277 22.3498 130.025 22.3498C129.772 22.3498 129.518 22.4471 129.262 22.6416C129.005 22.8379 128.782 23.1579 128.594 23.6015C128.186 24.5686 127.982 26.0639 127.982 28.0873ZM142.129 34.7328L141.98 33.6802C141.216 34.5601 140.244 35 139.066 35C137.985 35 137.132 34.6046 136.507 33.8138C135.862 32.9975 135.539 31.8459 135.539 30.3588C135.539 28.8717 135.711 27.571 136.054 26.4566C136.399 25.344 136.852 24.4096 137.412 23.6533C138.522 22.1626 139.884 21.3772 141.497 21.2972C141.441 18.563 141.369 16.9942 141.282 16.5906C141.194 16.187 141.106 15.8679 141.019 15.6334C140.931 15.3971 140.831 15.1817 140.719 14.9871L140.361 14.36H144.203C144.006 15.2562 143.892 16.1261 143.86 16.9696C143.828 17.8131 143.805 18.5549 143.791 19.1948C143.778 19.8329 143.768 20.5028 143.761 21.2045C143.739 22.3771 143.728 23.5424 143.728 24.7004C143.728 25.8585 143.73 26.7347 143.733 27.3292C143.737 27.9236 143.746 28.4872 143.761 29.0199C143.795 31.0178 143.855 32.2049 143.94 32.5812C144.023 32.9594 144.109 33.2611 144.196 33.4866C144.284 33.7138 144.384 33.9247 144.496 34.1192L144.856 34.7328H142.129ZM141.512 29.8461C141.544 28.479 141.56 27.1983 141.56 26.0039C141.56 24.8113 141.55 23.6733 141.53 22.5898C140.512 22.7843 139.698 23.5433 139.087 24.8668C138.477 26.1793 138.171 27.8346 138.171 29.8325C138.171 31.0142 138.243 31.8395 138.387 32.3085C138.531 32.7794 138.702 33.1239 138.902 33.342C139.102 33.5584 139.344 33.6665 139.628 33.6665C139.913 33.6665 140.162 33.5938 140.376 33.4484C140.591 33.3011 140.778 33.0857 140.939 32.8021C141.29 32.1985 141.481 31.2132 141.512 29.8461ZM149.934 17.7032C149.789 17.9958 149.615 18.2422 149.413 18.4421C149.209 18.6421 148.977 18.7421 148.719 18.7421C148.458 18.7421 148.226 18.6421 148.022 18.4421C147.82 18.2422 147.648 17.9958 147.507 17.7032C147.22 17.0996 147.076 16.4606 147.076 15.7861C147.076 14.9699 147.371 14.4236 147.96 14.1473C148.17 14.0491 148.425 14 148.727 14C149.562 14 150.082 14.3736 150.286 15.1208C150.349 15.3335 150.381 15.5707 150.381 15.8325C150.381 16.0943 150.342 16.3979 150.264 16.7433C150.188 17.0905 150.078 17.4105 149.934 17.7032ZM150.18 34.7328H147.076C147.398 33.3311 147.559 30.9214 147.559 27.5037C147.559 25.0967 147.391 23.4406 147.054 22.5353C146.97 22.3044 146.875 22.0917 146.77 21.8972L146.423 21.2836H150.161C149.852 22.7489 149.697 25.0058 149.697 28.0545C149.697 31.1051 149.858 33.3311 150.18 34.7328ZM160.696 27.6237L160.664 30.1788C160.664 31.7677 160.779 32.8503 161.011 33.4266C161.151 33.7738 161.317 34.0401 161.506 34.2256L162 34.7328H158.948L158.622 33.1893C157.829 34.3964 156.699 35 155.233 35C154.399 35 153.725 34.6446 153.212 33.9338C152.763 33.2939 152.539 32.5394 152.539 31.6704C152.539 30.7996 152.702 30.0406 153.028 29.3935C153.355 28.7463 153.784 28.2091 154.317 27.7818C155.369 26.9565 156.692 26.5266 158.286 26.492V26.3448C158.286 24.1869 158.023 22.9216 157.497 22.5489C157.307 22.4162 157.063 22.3498 156.764 22.3498C156.466 22.3498 156.17 22.4744 155.876 22.7234C155.581 22.9707 155.315 23.2897 155.076 23.6806C154.598 24.4714 154.257 25.404 154.054 26.4784C153.429 26.0075 153.117 25.1058 153.117 23.7733C153.117 23.2333 153.173 22.6252 153.285 21.949C153.552 21.949 153.805 21.9008 154.044 21.8044L154.854 21.4854C155.647 21.1745 156.423 21.0191 157.18 21.0191C157.937 21.0191 158.542 21.1609 158.995 21.4445C159.448 21.7281 159.801 22.1498 160.053 22.7098C160.482 23.6587 160.696 25.2967 160.696 27.6237ZM154.811 31.9377C154.811 32.4867 154.912 32.9121 155.113 33.2139C155.313 33.5156 155.563 33.6665 155.865 33.6665C156.167 33.6665 156.458 33.5675 156.738 33.3693C157.018 33.1693 157.271 32.8957 157.497 32.5485C158.023 31.7595 158.286 30.8324 158.286 29.767V27.7955C157.303 27.9118 156.492 28.3245 155.854 29.0335C155.159 29.797 154.811 30.7651 154.811 31.9377Z" fill="white"/>
</svg>
