<svg width="1600" height="450" viewBox="0 0 1600 450" fill="none" xmlns="http://www.w3.org/2000/svg">
<path d="M965 0L547 450H1404L965 0Z" fill="#C7C7C7"/>
<path d="M965 0L880.9 450H1404L965 0Z" fill="#AAAAAA"/>
<path d="M-52 450L406 212L824 450H-52Z" fill="#A5AFBB"/>
<path d="M345 450L406 212L824 450H345Z" fill="#808897"/>
<path d="M1211 96L1560 450H884L1211 96Z" fill="#809ABA"/>
<path d="M1211 96L1560 450H1170L1211 96Z" fill="#576886"/>
<path d="M649 245L894 450H375L649 245Z" fill="#6895CB"/>
<path d="M595 450L649 245L894 450H595Z" fill="#5571A1"/>
<path d="M1718 450L1409 182L1104 450H1718Z" fill="#2C6AB7"/>
<path d="M1718 450L1409 182L1373 450H1718Z" fill="#375A99"/>
<path d="M1218 450L979 237L733 450H1218Z" fill="#336CB0"/>
<path d="M951 450H1218L979 237L951 450Z" fill="#294880"/>
</svg>
